<svg xmlns="http://www.w3.org/2000/svg" width="190" height="56" viewBox="0 0 190 56">
    <defs>
        <linearGradient id="gk6lnp2yha" x1="61.163%" x2="26.264%" y1="4.946%" y2="71.879%">
            <stop offset="0%" stop-color="#00A0FF"/>
            <stop offset="1%" stop-color="#00A1FF"/>
            <stop offset="26%" stop-color="#00BEFF"/>
            <stop offset="51%" stop-color="#00D2FF"/>
            <stop offset="76%" stop-color="#00DFFF"/>
            <stop offset="100%" stop-color="#00E3FF"/>
        </linearGradient>
        <linearGradient id="k49r2rhrlb" x1="107.685%" x2="-130.64%" y1="50%" y2="50%">
            <stop offset="0%" stop-color="#FFE000"/>
            <stop offset="41%" stop-color="#FFBD00"/>
            <stop offset="78%" stop-color="orange"/>
            <stop offset="100%" stop-color="#FF9C00"/>
        </linearGradient>
        <linearGradient id="61ufsm7ixc" x1="86.271%" x2="-50.18%" y1="31.073%" y2="135.205%">
            <stop offset="0%" stop-color="#FF3A44"/>
            <stop offset="100%" stop-color="#C31162"/>
        </linearGradient>
        <linearGradient id="g15j7j5gvd" x1="-18.825%" x2="42.086%" y1="-11.26%" y2="35.236%">
            <stop offset="0%" stop-color="#32A071"/>
            <stop offset="7%" stop-color="#2DA771"/>
            <stop offset="48%" stop-color="#15CF74"/>
            <stop offset="80%" stop-color="#06E775"/>
            <stop offset="100%" stop-color="#00F076"/>
        </linearGradient>
    </defs>
    <g fill="none" fill-rule="evenodd">
        <g fill-rule="nonzero">
            <g>
                <g transform="translate(-622.000000, -480.000000) translate(408.000000, 224.000000) translate(214.000000, 256.000000)">
                    <rect width="190" height="56" fill="transparent" rx="7.037"/>
                    <path fill="#FFF" stroke="#FFF" stroke-width=".5" d="M66.74 14.336c.046 1.037-.335 2.049-1.056 2.8-.809.83-1.935 1.279-3.097 1.232-1.167.026-2.293-.43-3.11-1.26-1.706-1.736-1.706-4.508 0-6.244 1.282-1.246 3.19-1.605 4.842-.91.507.208.96.528 1.322.938l-.745.742c-.567-.68-1.423-1.053-2.309-1.008-1.517.01-2.842 1.027-3.237 2.484-.396 1.458.234 2.999 1.54 3.767 1.307.77 2.968.577 4.062-.469.43-.469.679-1.074.704-1.708h-3.069v-1.008h4.096c.032.213.05.428.056.644h0zM73.185 10.836L69.385 10.836 69.385 13.496 72.847 13.496 72.847 14.504 69.385 14.504 69.385 17.164 73.185 17.164 73.185 18.2 68.287 18.2 68.287 9.8 73.185 9.8zM77.801 18.2L76.718 18.2 76.718 10.836 74.353 10.836 74.353 9.8 80.222 9.8 80.222 10.836 77.801 10.836zM84.36 18.2L84.36 9.8 85.444 9.8 85.444 18.2zM90.257 18.2L89.173 18.2 89.173 10.836 86.809 10.836 86.809 9.8 92.607 9.8 92.607 10.836 90.257 10.836zM103.6 17.108c-.822.817-1.936 1.277-3.097 1.277-1.162 0-2.275-.46-3.096-1.277-1.652-1.746-1.652-4.47 0-6.216.804-.841 1.93-1.304 3.096-1.274 1.165-.018 2.285.443 3.096 1.274.818.827 1.265 1.948 1.239 3.108.037 1.162-.411 2.287-1.239 3.108h0zm-5.391-.7c.605.61 1.432.954 2.294.954.862 0 1.688-.344 2.294-.954 1.26-1.361 1.26-3.455 0-4.816-.606-.61-1.432-.954-2.294-.954-.862 0-1.689.344-2.294.954-1.26 1.361-1.26 3.455 0 4.816h0zM106.372 18.2L106.372 9.8 107.681 9.8 111.79 16.338 111.79 16.338 111.79 14.714 111.79 9.8 112.874 9.8 112.874 18.2 111.748 18.2 107.456 11.354 107.456 11.354 107.456 12.964 107.456 18.2z"/>
                    <path fill="#FFF" d="M95.9 30.45c-3.31.008-5.988 2.684-5.98 5.978.007 3.294 2.698 5.958 6.009 5.95 3.311-.008 5.99-2.684 5.981-5.978.024-1.59-.603-3.121-1.736-4.243-1.133-1.121-2.675-1.738-4.273-1.707zm0 9.562c-1.487.103-2.886-.708-3.529-2.046-.643-1.338-.398-2.931.618-4.017 1.015-1.086 2.595-1.444 3.983-.903 1.388.54 2.303 1.87 2.307 3.354.045.928-.288 1.835-.924 2.515-.636.68-1.52 1.075-2.454 1.097zM82.785 30.45c-3.312.008-5.99 2.684-5.982 5.978.008 3.294 2.699 5.958 6.01 5.95 3.311-.008 5.99-2.684 5.981-5.978.024-1.59-.603-3.121-1.736-4.243-1.133-1.121-2.675-1.738-4.273-1.707zm0 9.562c-1.488.103-2.887-.708-3.53-2.046-.643-1.338-.398-2.931.618-4.017 1.015-1.086 2.595-1.444 3.983-.903 1.388.54 2.303 1.87 2.306 3.354.046.928-.287 1.835-.923 2.515-.636.68-1.52 1.075-2.454 1.097zM67.19 32.284v2.52h6.08c-.096 1.187-.592 2.307-1.408 3.178-1.233 1.25-2.941 1.922-4.7 1.848-3.732 0-6.756-3.009-6.756-6.72s3.024-6.72 6.755-6.72c1.718-.025 3.377.623 4.617 1.806l1.787-1.778c-1.694-1.667-3.992-2.586-6.375-2.548-3.408-.132-6.615 1.601-8.358 4.516-1.743 2.916-1.743 6.546 0 9.462 1.743 2.915 4.95 4.648 8.358 4.516 2.435.097 4.795-.846 6.488-2.59 1.478-1.615 2.265-3.74 2.195-5.922.005-.525-.037-1.05-.126-1.568H67.19zm63.77 1.96c-.752-2.2-2.79-3.709-5.124-3.794-1.556-.003-3.044.635-4.11 1.762-1.067 1.127-1.617 2.643-1.52 4.188-.024 2.625 1.691 4.952 4.215 5.72 2.523.766 5.253-.211 6.707-2.402l-2.04-1.4c-.62 1.026-1.739 1.65-2.942 1.638-1.249.051-2.4-.666-2.9-1.806l8.009-3.29-.296-.616zm-8.164 1.988c-.057-.878.243-1.743.833-2.399.59-.656 1.422-1.047 2.306-1.087.927-.056 1.798.446 2.21 1.274l-5.349 2.212zM116.294 42h2.632V24.5h-2.632V42zm-4.307-10.22h-.098c-.796-.901-1.947-1.413-3.153-1.4-3.194.154-5.705 2.775-5.705 5.957s2.51 5.803 5.705 5.957c1.208.024 2.364-.49 3.153-1.4h.098v.854c0 2.282-1.224 3.5-3.194 3.5-1.347-.03-2.542-.864-3.026-2.114l-2.28.938c.863 2.156 2.973 3.56 5.306 3.528 3.082 0 5.63-1.806 5.63-6.202V30.8h-2.436v.98zm-3.026 8.232c-1.913-.119-3.405-1.697-3.405-3.605s1.492-3.486 3.405-3.605c.911.04 1.767.444 2.372 1.122.605.679.907 1.572.837 2.476.078.907-.221 1.807-.827 2.489-.606.682-1.467 1.088-2.382 1.123zM143.288 24.5h-6.305V42h2.632v-6.636h3.673c2.045.146 4-.856 5.067-2.597 1.067-1.741 1.067-3.929 0-5.67-1.067-1.74-3.022-2.743-5.067-2.597zm0 8.4h-3.673v-5.964h3.73c1.075 0 2.07.571 2.608 1.498.538.927.538 2.069 0 2.996s-1.533 1.498-2.609 1.498l-.056-.028zm16.242-2.506c-1.96-.12-3.802.931-4.687 2.674l2.322.966c.48-.86 1.422-1.359 2.407-1.274.675-.078 1.353.116 1.882.54.53.424.866 1.041.933 1.714v.168c-.847-.443-1.789-.673-2.745-.672-2.505 0-5.066 1.4-5.066 3.948.05 1.094.544 2.121 1.368 2.847.825.726 1.91 1.088 3.009 1.003 1.344.074 2.625-.579 3.35-1.708h.084V42h2.533v-6.734c0-3.066-2.336-4.844-5.334-4.844l-.056-.028zm-.324 9.59c-.859 0-2.055-.434-2.055-1.484 0-1.4 1.492-1.876 2.815-1.876.836-.02 1.662.183 2.393.588-.183 1.572-1.506 2.768-3.097 2.8l-.056-.028zm14.947-9.184l-3.012 7.588h-.085l-3.124-7.588h-2.815l4.687 10.612-2.674 5.894h2.744L177.08 30.8h-2.927zM150.508 42h2.618V24.5h-2.618V42z"/>
                    <path fill="url(#gk6lnp2yha)" d="M14.693 10.556c-.463.545-.7 1.247-.661 1.96v30.968c-.048.715.19 1.419.661 1.96l.099.112L32.23 28.21v-.42L14.792 10.458l-.099.098z"/>
                    <path fill="url(#k49r2rhrlb)" d="M38 33.992l-5.77-5.782v-.42L38 22.008l.127.084 6.91 3.892c1.97 1.106 1.97 2.926 0 4.046l-6.882 3.892-.155.07z"/>
                    <path fill="url(#61ufsm7ixc)" d="M38.169 33.908L32.229 28 14.694 45.444c.82.727 2.046.768 2.914.098l20.562-11.634"/>
                    <path fill="url(#g15j7j5gvd)" d="M38.169 22.092l-20.562-11.62c-.863-.68-2.092-.644-2.914.084L32.23 28l5.939-5.908z"/>
                    <path fill="#000" d="M38 33.782l-20.393 11.55c-.833.625-1.982.625-2.815 0l-.099.098.099.112c.833.625 1.982.625 2.815 0l20.562-11.634-.169-.126z" opacity=".2"/>
                    <path fill="#000" d="M14.693 45.248c-.452-.555-.673-1.262-.619-1.974v.21c-.048.715.19 1.419.662 1.96l.098-.098-.14-.098zM45.037 29.82L38 33.782l.127.126 6.91-3.892c.831-.35 1.403-1.123 1.492-2.016-.179.808-.732 1.483-1.492 1.82z" opacity=".12"/>
                    <path fill="#FFF" d="M17.607 10.668l27.43 15.512c.76.337 1.313 1.012 1.492 1.82-.089-.893-.661-1.667-1.492-2.016l-27.43-15.512c-1.957-1.12-3.575-.196-3.575 2.044v.21c.042-2.24 1.618-3.164 3.575-2.058z" opacity=".25"/>
                </g>
            </g>
        </g>
    </g>
</svg>
