<svg xmlns="http://www.w3.org/2000/svg" width="190" height="56" viewBox="0 0 190 56">
    <g fill="none" fill-rule="evenodd">
        <g fill-rule="nonzero">
            <g>
                <g>
                    <path d="M188.638 49.375c0 2.963-2.413 5.362-5.396 5.362H6.656c-2.983 0-5.403-2.4-5.403-5.362V6.615c0-2.961 2.42-5.369 5.403-5.369H183.24c2.985 0 5.398 2.408 5.398 5.369v42.76z" transform="translate(-408.000000, -480.000000) translate(408.000000, 224.000000) translate(0.000000, 256.000000)"/>
                    <g fill="#FFF">
                        <path d="M24.399 18.994c-.04-4.512 3.714-6.708 3.886-6.81-2.127-3.084-5.423-3.505-6.581-3.539-2.769-.29-5.454 1.648-6.864 1.648-1.439 0-3.61-1.62-5.95-1.572-3.013.046-5.83 1.78-7.375 4.474-3.19 5.492-.811 13.563 2.244 18.003 1.529 2.174 3.315 4.601 5.652 4.516 2.288-.094 3.142-1.45 5.902-1.45 2.734 0 3.537 1.45 5.92 1.395 2.455-.039 4-2.184 5.476-4.377 1.766-2.492 2.475-4.947 2.503-5.073-.057-.02-4.767-1.807-4.813-7.215zM19.895 5.725c1.23-1.53 2.072-3.612 1.838-5.725-1.78.078-4.007 1.225-5.289 2.722-1.134 1.318-2.147 3.48-1.886 5.513 2 .148 4.054-1.004 5.337-2.51z" transform="translate(-408.000000, -480.000000) translate(408.000000, 224.000000) translate(0.000000, 256.000000) translate(18.003421, 8.703800)"/>
                    </g>
                    <g fill="#FFF">
                        <path d="M15.812 18.904h-3.196l-1.75-5.472H4.78l-1.668 5.472H0L6.03.273h3.723l6.06 18.631zm-5.475-7.768L8.754 6.27c-.167-.497-.481-1.668-.944-3.51h-.057c-.184.792-.48 1.963-.89 3.51L5.31 11.136h5.028zM31.318 12.022c0 2.285-.621 4.09-1.862 5.416-1.112 1.18-2.493 1.77-4.141 1.77-1.779 0-3.057-.636-3.835-1.907h-.056v7.077h-3.001V9.892c0-1.436-.038-2.91-.111-4.422h2.639l.167 2.13h.056c1.001-1.605 2.52-2.406 4.558-2.406 1.593 0 2.923.626 3.987 1.879 1.067 1.254 1.599 2.903 1.599 4.949zm-3.057.109c0-1.308-.296-2.386-.89-3.234-.649-.885-1.52-1.327-2.612-1.327-.74 0-1.413.246-2.014.732-.602.49-.996 1.13-1.18 1.922-.094.37-.14.672-.14.91v2.24c0 .977.301 1.802.904 2.475.602.674 1.384 1.01 2.347 1.01 1.13 0 2.01-.434 2.639-1.3.63-.866.946-2.008.946-3.428zM46.851 12.022c0 2.285-.62 4.09-1.863 5.416-1.11 1.18-2.491 1.77-4.14 1.77-1.778 0-3.056-.636-3.833-1.907h-.056v7.077h-3.001V9.892c0-1.436-.038-2.91-.111-4.422h2.639l.167 2.13h.056c1-1.605 2.518-2.406 4.558-2.406 1.591 0 2.921.626 3.988 1.879 1.063 1.254 1.596 2.903 1.596 4.949zm-3.057.109c0-1.308-.297-2.386-.89-3.234-.65-.885-1.518-1.327-2.611-1.327-.742 0-1.413.246-2.016.732-.602.49-.995 1.13-1.18 1.922-.09.37-.138.672-.138.91v2.24c0 .977.3 1.802.9 2.475.603.672 1.385 1.01 2.35 1.01 1.13 0 2.01-.434 2.64-1.3.63-.866.945-2.008.945-3.428zM64.219 13.68c0 1.584-.554 2.874-1.664 3.869-1.22 1.088-2.919 1.631-5.102 1.631-2.015 0-3.63-.386-4.854-1.16l.695-2.488c1.318.792 2.763 1.19 4.338 1.19 1.13 0 2.01-.255 2.642-.762.629-.507.943-1.187.943-2.036 0-.756-.26-1.393-.779-1.91-.516-.516-1.379-.996-2.584-1.44-3.279-1.216-4.917-2.999-4.917-5.342 0-1.532.574-2.788 1.724-3.765C55.807.49 57.335 0 59.246 0c1.705 0 3.12.295 4.25.885l-.75 2.433c-1.055-.571-2.249-.857-3.584-.857-1.056 0-1.88.26-2.472.774-.5.461-.75 1.022-.75 1.687 0 .737.286 1.346.86 1.825.5.442 1.408.92 2.725 1.437 1.611.646 2.795 1.4 3.556 2.266.759.862 1.138 1.941 1.138 3.23zM74.14 7.71h-3.308v6.522c0 1.66.583 2.488 1.75 2.488.537 0 .982-.046 1.334-.138l.083 2.266c-.591.22-1.37.33-2.334.33-1.185 0-2.11-.36-2.78-1.077-.665-.72-1-1.927-1-3.622V7.707h-1.97v-2.24h1.97v-2.46l2.947-.885v3.345h3.307V7.71zM89.062 12.076c0 2.065-.594 3.76-1.779 5.087-1.243 1.365-2.892 2.045-4.948 2.045-1.982 0-3.56-.654-4.736-1.961-1.177-1.308-1.765-2.959-1.765-4.948 0-2.082.605-3.787 1.82-5.113 1.211-1.327 2.847-1.99 4.903-1.99 1.982 0 3.576.653 4.78 1.962 1.15 1.27 1.725 2.91 1.725 4.918zm-3.113.097c0-1.239-.266-2.302-.805-3.188-.63-1.072-1.529-1.607-2.694-1.607-1.206 0-2.122.536-2.751 1.607-.54.888-.805 1.967-.805 3.244 0 1.239.266 2.302.805 3.186.648 1.073 1.555 1.608 2.724 1.608 1.146 0 2.045-.546 2.694-1.636.553-.903.832-1.976.832-3.214zM98.815 8.095c-.296-.055-.613-.083-.945-.083-1.056 0-1.872.396-2.446 1.19-.5.7-.75 1.585-.75 2.653v7.05h-3l.028-9.204c0-1.549-.038-2.959-.112-4.23h2.613l.11 2.57h.083c.317-.883.817-1.594 1.5-2.127.669-.48 1.391-.72 2.17-.72.277 0 .527.02.75.055v2.846zM112.235 11.551c0 .535-.035.986-.11 1.354h-9.001c.035 1.327.47 2.342 1.306 3.042.758.626 1.74.94 2.944.94 1.333 0 2.549-.212 3.642-.636l.47 2.072c-1.278.555-2.786.83-4.527.83-2.094 0-3.738-.613-4.935-1.838-1.193-1.225-1.791-2.87-1.791-4.933 0-2.026.556-3.713 1.669-5.059 1.165-1.436 2.74-2.154 4.722-2.154 1.946 0 3.42.718 4.42 2.154.793 1.141 1.191 2.553 1.191 4.228zm-2.861-.774c.02-.885-.176-1.649-.583-2.294-.52-.83-1.317-1.245-2.391-1.245-.981 0-1.779.405-2.388 1.217-.5.645-.797 1.42-.888 2.32h6.25v.002z" transform="translate(-408.000000, -480.000000) translate(408.000000, 224.000000) translate(0.000000, 256.000000) translate(59.688148, 25.201400)"/>
                    </g>
                    <g fill="#FFF">
                        <path d="M7.563 4.834c0 1.648-.496 2.888-1.489 3.721-.919.769-2.225 1.154-3.916 1.154-.84 0-1.557-.036-2.158-.11V.597C.784.47 1.628.406 2.54.406c1.612 0 2.826.349 3.646 1.046.917.788 1.377 1.915 1.377 3.382zm-1.555.04c0-1.067-.284-1.886-.853-2.458-.568-.57-1.399-.855-2.492-.855-.465 0-.86.03-1.188.095v6.845c.182.028.514.04.996.04 1.13 0 2-.312 2.614-.936.614-.625.923-1.535.923-2.73zM15.81 6.273c0 1.015-.292 1.847-.875 2.5-.61.67-1.42 1.005-2.43 1.005-.974 0-1.75-.321-2.328-.965-.577-.643-.866-1.453-.866-2.43 0-1.022.297-1.861.894-2.512s1.4-.977 2.41-.977c.974 0 1.756.32 2.349.963.563.624.845 1.43.845 2.416zm-1.53.048c0-.609-.133-1.131-.396-1.567-.31-.526-.75-.79-1.323-.79-.592 0-1.043.264-1.352.79-.265.436-.396.966-.396 1.594 0 .609.132 1.13.396 1.566.32.527.764.79 1.338.79.563 0 1.005-.268 1.323-.804.273-.444.41-.97.41-1.579zM26.866 3.028l-2.076 6.6H23.44l-.86-2.866c-.218-.715-.395-1.427-.533-2.132h-.027c-.128.725-.306 1.435-.534 2.132l-.913 2.866h-1.367l-1.952-6.6h1.516l.75 3.138c.182.742.331 1.449.45 2.118h.027c.11-.552.292-1.255.548-2.104l.941-3.15h1.202l.903 3.082c.218.752.395 1.476.532 2.173h.04c.1-.679.25-1.403.45-2.173l.806-3.082h1.448v-.002zM34.512 9.628h-1.475v-3.78c0-1.165-.444-1.747-1.337-1.747-.437 0-.79.16-1.065.48-.272.32-.41.698-.41 1.131v3.914h-1.474V4.914c0-.58-.019-1.208-.054-1.889h1.296l.07 1.032h.04c.172-.32.428-.585.764-.796.4-.247.848-.371 1.337-.371.62 0 1.135.198 1.544.597.51.489.764 1.218.764 2.187v3.954zM38.58 9.628L37.106 9.628 37.106 0 38.58 0zM47.264 6.273c0 1.015-.292 1.847-.874 2.5-.611.67-1.422 1.005-2.431 1.005-.975 0-1.75-.321-2.328-.965-.577-.643-.865-1.453-.865-2.43 0-1.022.297-1.861.893-2.512.597-.651 1.4-.977 2.408-.977.976 0 1.757.32 2.35.963.564.624.847 1.43.847 2.416zm-1.532.048c0-.609-.132-1.131-.395-1.567-.308-.526-.75-.79-1.322-.79-.594 0-1.044.264-1.352.79-.265.436-.396.966-.396 1.594 0 .609.133 1.13.396 1.566.32.527.764.79 1.338.79.563 0 1.004-.268 1.322-.804.274-.444.41-.97.41-1.579zM54.402 9.628h-1.324l-.11-.76h-.041c-.453.606-1.1.91-1.938.91-.626 0-1.133-.2-1.514-.598-.347-.361-.52-.81-.52-1.344 0-.807.338-1.421 1.018-1.847.678-.425 1.632-.634 2.861-.624v-.123c0-.87-.459-1.304-1.378-1.304-.654 0-1.231.164-1.73.489l-.3-.963c.617-.38 1.379-.57 2.277-.57 1.733 0 2.603.91 2.603 2.73v2.43c0 .66.033 1.185.096 1.574zM52.87 7.36V6.342c-1.627-.028-2.44.416-2.44 1.33 0 .344.092.602.282.774.19.172.432.258.72.258.324 0 .627-.102.903-.305.277-.205.447-.464.51-.782.016-.071.025-.158.025-.257zM62.783 9.628h-1.309l-.069-1.06h-.04c-.419.806-1.13 1.21-2.131 1.21-.8 0-1.466-.313-1.993-.937-.528-.624-.791-1.435-.791-2.43 0-1.069.285-1.934.86-2.595.556-.616 1.237-.924 2.047-.924.891 0 1.515.299 1.87.896h.028V0h1.476v7.85c0 .642.017 1.235.052 1.778zm-1.528-2.783v-1.1c0-.191-.014-.345-.041-.463-.083-.353-.262-.65-.534-.889-.274-.24-.605-.36-.986-.36-.55 0-.981.217-1.298.653-.314.435-.473.991-.473 1.67 0 .652.15 1.182.453 1.589.32.434.75.651 1.29.651.484 0 .87-.18 1.165-.543.284-.335.424-.738.424-1.208zM75.398 6.273c0 1.015-.292 1.847-.874 2.5-.611.67-1.419 1.005-2.431 1.005-.972 0-1.748-.321-2.328-.965-.577-.643-.865-1.453-.865-2.43 0-1.022.297-1.861.893-2.512.597-.651 1.4-.977 2.411-.977.973 0 1.757.32 2.348.963.563.624.846 1.43.846 2.416zm-1.529.048c0-.609-.132-1.131-.395-1.567-.311-.526-.75-.79-1.325-.79-.59 0-1.041.264-1.352.79-.265.436-.396.966-.396 1.594 0 .609.133 1.13.396 1.566.32.527.764.79 1.338.79.563 0 1.007-.268 1.325-.804.271-.444.41-.97.41-1.579zM83.328 9.628h-1.473v-3.78c0-1.165-.445-1.747-1.339-1.747-.437 0-.79.16-1.064.48-.273.32-.41.698-.41 1.131v3.914h-1.476V4.914c0-.58-.016-1.208-.052-1.889h1.295l.07 1.032h.04c.173-.32.43-.585.764-.796.401-.247.847-.371 1.339-.371.617 0 1.133.198 1.542.597.511.489.764 1.218.764 2.187v3.954zM93.255 4.127H91.63v3.206c0 .815.288 1.222.86 1.222.264 0 .484-.022.657-.068l.038 1.113c-.291.109-.674.164-1.146.164-.582 0-1.036-.177-1.364-.53-.329-.352-.492-.946-.492-1.779V4.127h-.97V3.028h.97v-1.21l1.445-.433v1.642h1.624v1.1h.002zM101.063 9.628h-1.476V5.876c0-1.183-.445-1.775-1.336-1.775-.684 0-1.151.343-1.407 1.029-.044.144-.07.32-.07.527v3.97h-1.473V0h1.474v3.977h.028c.464-.723 1.13-1.085 1.993-1.085.61 0 1.116.2 1.517.598.5.497.75 1.236.75 2.214v3.924zM109.118 6.016c0 .263-.02.484-.055.665h-4.424c.02.652.231 1.15.64 1.494.375.308.858.462 1.449.462.654 0 1.251-.104 1.789-.313l.23 1.02c-.629.271-1.369.407-2.226.407-1.027 0-1.837-.301-2.422-.903-.588-.602-.88-1.41-.88-2.423 0-.996.272-1.825.82-2.485.57-.706 1.343-1.059 2.319-1.059.954 0 1.679.353 2.169 1.059.395.56.59 1.253.59 2.076zm-1.408-.38c.012-.435-.086-.81-.285-1.127-.257-.407-.646-.611-1.174-.611-.482 0-.874.198-1.174.597-.245.318-.39.698-.438 1.141h3.071z" transform="translate(-408.000000, -480.000000) translate(408.000000, 224.000000) translate(0.000000, 256.000000) translate(61.469926, 9.178400)"/>
                    </g>
                </g>
            </g>
        </g>
    </g>
</svg>
