<svg xmlns="http://www.w3.org/2000/svg" viewBox="0 0 80 60"><title>es</title><path d="M28.18 23.4a1.52 1.52 0 0 0-.5-1.23l-.78-.52-.06-.06a9.33 9.33 0 0 0-1-.15v1.7a12.7 12.7 0 0 1 2.34.26zM24.58 23.16v-1.7a9.34 9.34 0 0 0-1.22.14l-.77.5a1.6 1.6 0 0 0-.53 1.36 19.35 19.35 0 0 1 2.5-.3zM28.8 23.57l.7.23.26-.9a.55.55 0 0 0-.4-.67l-1-.28a1.9 1.9 0 0 1 .44 1.62z" fill="#fecc00"/><path d="M80 15H0v30h80zM32.56 27.13h2.8v1.37h-2.8zm-12-5.4l2.07-.53a10 10 0 0 1 1.88-.27.65.65 0 0 1-.07-.3.8.8 0 0 1 1.57 0 .65.65 0 0 1-.1.3 9.94 9.94 0 0 1 1.7.27l1.94.5a1.1 1.1 0 0 1 .83 1.3l-.57 2-.88 2.12h-7.46l-.9-1.9-.84-2v-.07a1.1 1.1 0 0 1 .82-1.44zm-6 5.4h2.8v1.37h-2.8zm21.78 5.56a12.1 12.1 0 0 0-1.47.17v1.52a2.07 2.07 0 0 1 .73.7 1.4 1.4 0 0 1 0 1.3.5.5 0 0 1-.66.25.48.48 0 0 1-.1-.08v1.56h.5v1.37h-2.78v-1.37h.38V34.7a7.42 7.42 0 0 0-.8-.14.5.5 0 0 1-.45-.42 1.33 1.33 0 0 1 .3-1.06 2.6 2.6 0 0 1 .94-.66v-.63a5.77 5.77 0 0 0-1.8.32V38a3 3 0 0 1-2.8 3 12 12 0 0 1-3.27.37 12.1 12.1 0 0 1-3.23-.37H22a3 3 0 0 0 .4 0v-6.9h-.7V41a3 3 0 0 1-.67-.14v-6.73h-.68v6.45a3 3 0 0 1-.68-.62v-5.83H19v3.26-5.26a5.7 5.7 0 0 0-2-.36v.58a2.74 2.74 0 0 1 1.07.73 1.33 1.33 0 0 1 .3 1.05.5.5 0 0 1-.44.42 7.56 7.56 0 0 0-.93.18v3.4h.38v1.35h-2.82v-1.37h.5v-1.48a.5.5 0 0 1-.64-.26 1.4 1.4 0 0 1 0-1.32 2 2 0 0 1 .6-.62v-1.6a12.08 12.08 0 0 0-1.33-.17.5.5 0 0 1-.24-.94 6.76 6.76 0 0 1 1.57-.7v-2.5H17v2.2a7 7 0 0 1 2 .3v-4h12.13v4a6.93 6.93 0 0 1 1.8-.27v-2.24h1.95V31a6.77 6.77 0 0 1 1.7.74.5.5 0 0 1-.23.93z" fill="#fecc00"/><path d="M32.8 33.66h.14v-.12zM20.65 23.77l.85-.2a1.74 1.74 0 0 1 .42-1.67l-1.22.3a.54.54 0 0 0-.37.7zM17.25 33.66a1.3 1.3 0 0 0-.25-.2v.26z" fill="#fecc00"/><path fill="#d00" d="M80 0H-.02v15H80V0M80 45H0v15h80V45"/><path d="M32.94 31.78v.63a7.23 7.23 0 0 1 1.5-.47 5.6 5.6 0 0 0-1.5-.15zM32.94 33.68a6.22 6.22 0 0 1 1.94.7v-1.5a4.94 4.94 0 0 0-1.94.68zM34.88 28.56h-1.94v2.2a6.6 6.6 0 0 1 1.94.25zM34.73 36a.4.4 0 0 0 0-.4 3.15 3.15 0 0 0-1.8-.88v3.42h1.94v-1.57a.5.5 0 0 1-.14-.57zM17 33.46a6 6 0 0 0-1.94-.6v1.6a5.74 5.74 0 0 1 1.94-.75zM15.33 35.58a.4.4 0 0 0 0 .4.5.5 0 0 1-.25.67v1.48H17v-3.4a3 3 0 0 0-1.67.85zM15.62 31.94a7.63 7.63 0 0 1 1.38.4v-.57a5.65 5.65 0 0 0-1.38.17zM17 28.56h-1.94v2.5a6.57 6.57 0 0 1 1.94-.28z" fill="#ccc"/><path fill="#cca733" d="M32.56 27.13h2.8v1.38h-2.8zM32.56 38.13v1.37h2.82v-1.37h-2.82M14.56 38.13v1.37h2.82v-1.37h-2.82M14.56 27.13h2.8v1.38h-2.8z"/><path d="M34.88 31a6.6 6.6 0 0 0-1.94-.24 6.93 6.93 0 0 0-1.8.28v1.05a5.77 5.77 0 0 1 1.8-.34 5.6 5.6 0 0 1 1.5.16 7.23 7.23 0 0 0-1.5.48 2.6 2.6 0 0 0-.95.66 1.33 1.33 0 0 0-.3 1.06.5.5 0 0 0 .43.42 7.42 7.42 0 0 1 .8.15 3.15 3.15 0 0 1 1.8.86.4.4 0 0 1 0 .4.5.5 0 0 0 .15.6.48.48 0 0 0 .1.07.5.5 0 0 0 .67-.25 1.4 1.4 0 0 0 0-1.3 2.07 2.07 0 0 0-.73-.7 6.22 6.22 0 0 0-1.94-.72h-.13l.13-.1a4.94 4.94 0 0 1 1.94-.7 12.1 12.1 0 0 1 1.47-.17.5.5 0 0 0 .22-.94 6.77 6.77 0 0 0-1.74-.76z" fill="#d00"/><path fill="#ccc" d="M31.13 27.1H25v7.02h6.13V27.1M28.06 41.06A3.06 3.06 0 0 1 25 38a3 3 0 0 1-.67 1.87 2.77 2.77 0 0 1-1.3.94 3.8 3.8 0 0 1-1 .2h-.15a12.1 12.1 0 0 0 3.22.36 12 12 0 0 0 3.24-.36h-.27zM23.7 34.13H19v3.22-3.22h4.7z"/><path d="M25 34.12V38a3.06 3.06 0 0 0 3.06 3h.27a3 3 0 0 0 2.8-3v-3.88zM19.68 39.95a3 3 0 0 0 .68.62v-6.44h-.68zM23.7 34.13v6.4a3 3 0 0 0 .63-.6v-5.8zM23 34.13h-.62V41a3 3 0 0 0 .62-.15zM21 40.9a3 3 0 0 0 .68.13v-6.9H21z" fill="#d00"/><path d="M23 34.13v6.75a3 3 0 0 0 .68-.35v-6.4zM24.33 39.94a3 3 0 0 0 .67-1.87v-3.94h-.67z" fill="#fecc00"/><path d="M25 34.12v-7h-6v4a7 7 0 0 0-2-.3 6.57 6.57 0 0 0-1.94.28 6.76 6.76 0 0 0-1.57.7.5.5 0 0 0 .22.93 12.08 12.08 0 0 1 1.34.16 6 6 0 0 1 1.94.6 1.3 1.3 0 0 1 .25.2l-.25.04a5.74 5.74 0 0 0-1.94.76 2 2 0 0 0-.6.62 1.4 1.4 0 0 0 0 1.3.5.5 0 0 0 .63.27.5.5 0 0 0 .24-.67.4.4 0 0 1 0-.4 3 3 0 0 1 1.66-.9 7.56 7.56 0 0 1 .93-.17.5.5 0 0 0 .44-.42 1.33 1.33 0 0 0-.3-1.06 2.74 2.74 0 0 0-1.07-.73 7.63 7.63 0 0 0-1.38-.4 5.8 5.8 0 0 1 3.38.2v2z" fill="#d00"/><path d="M21.28 25.28h.95l-.68-1.53a1.43 1.43 0 0 1 0-.18l-.85.2zM25.8 25.28h1.64l.75-1.66v-.23a12.7 12.7 0 0 0-2.4-.28zM22.1 23.54l.78 1.74h1.7v-2.12a19.35 19.35 0 0 0-2.5.3.37.37 0 0 0 0 .08zM28.74 23.84l-.66 1.44h1l.43-1.48c-.22-.1-.45-.16-.7-.23a1.27 1.27 0 0 1-.06.27z" fill="#c60d1d"/><path d="M19.7 23.15l.86 2 .9 1.9h7.46L29.8 25l.57-2a1.1 1.1 0 0 0-.85-1.33l-1.95-.5a9.94 9.94 0 0 0-1.68-.27.8.8 0 0 1-1.4 0 10 10 0 0 0-1.9.27l-2.06.52a1.1 1.1 0 0 0-.86 1.35zm9.65-.9a.55.55 0 0 1 .4.65l-.25.9-.43 1.5h-1l.66-1.45a1.27 1.27 0 0 0 .06-.27 1.9 1.9 0 0 0-.47-1.58zm-2.5-.65l.05.06.78.52a1.52 1.52 0 0 1 .5 1.24v.23l-.75 1.66H25.8v-3.85a9.33 9.33 0 0 1 1.04.14zm-4.26.5l.76-.5a9.34 9.34 0 0 1 1.22-.14v3.82h-1.7l-.78-1.74a.37.37 0 0 1 0-.08 1.6 1.6 0 0 1 .5-1.38zm-1.94.14l1.22-.3a1.74 1.74 0 0 0-.42 1.66 1.43 1.43 0 0 0 0 .18l.68 1.53h-.95l-.64-1.5-.35-.83a.54.54 0 0 1 .46-.74z" fill="#cca733"/><path d="M25.2 21.33a.8.8 0 0 0 .7-.4.65.65 0 0 0 .1-.3.8.8 0 0 0-1.58 0 .65.65 0 0 0 .08.3.8.8 0 0 0 .7.4z" fill="#00319c"/></svg>