<svg xmlns="http://www.w3.org/2000/svg" viewBox="0 0 60 40"><title>open</title><g style="isolation:isolate"><g id="Ebene_2" data-name="Ebene 2"><path d="M9,8.16,4.34,28l45,11L54,19.12Zm11.66,6.11a1,1,0,1,1,1.05-.94A1,1,0,0,1,20.67,14.27Zm19.6,4.9a1,1,0,1,1,1.05-.94A1,1,0,0,1,40.27,19.17Z" fill="#84bb49"/><g style="mix-blend-mode:multiply"><path d="M40.25,18.49a.51.51,0,0,1-.48-.36L35,1.74,21.06,13a.5.5,0,0,1-.71-.09.52.52,0,0,1,.08-.73L35.58,0l5.16,17.82a.52.52,0,0,1-.33.65Z" fill="#b1b1b1"/></g><path d="M20.58,21.64a5,5,0,0,1-1.95,3.17,4.23,4.23,0,0,1-3.48.43,4.23,4.23,0,0,1-2.89-2A5.05,5.05,0,0,1,12,19.54a5,5,0,0,1,2-3.17A4.28,4.28,0,0,1,17.43,16a4.23,4.23,0,0,1,2.89,2A5,5,0,0,1,20.58,21.64ZM14,20a3.88,3.88,0,0,0,0,2.41,2.07,2.07,0,0,0,1.53,1.18q2.29.56,3-2.48T17,17.55a2.08,2.08,0,0,0-1.91.35A3.86,3.86,0,0,0,14,20Z" fill="#fff"/><path d="M29.09,21.93a2.84,2.84,0,0,1-1.45,2,4,4,0,0,1-2.77.14l-.82-.2-.78,3.21-1.91-.47,2.2-9,2.88.7a3.94,3.94,0,0,1,2.32,1.31A2.65,2.65,0,0,1,29.09,21.93Zm-4.67.38.63.15a2.16,2.16,0,0,0,1.4,0,1.26,1.26,0,0,0,.68-.91A1.29,1.29,0,0,0,27,20.44a1.77,1.77,0,0,0-1.07-.6l-.87-.21Z" fill="#fff"/><path d="M34.48,29.81l-5.19-1.26,2.2-9,5.19,1.26-.38,1.57L33,21.56l-.48,2,3.05.74-.38,1.57-3.05-.74-.57,2.32,3.28.8Z" fill="#fff"/><path d="M44.36,32.22l-2.43-.59-2.26-7.78h-.06q-.32,1.84-.51,2.61l-1,4.24-1.71-.42,2.2-9,2.41.59,2.27,7.71h0q.34-1.78.51-2.51l1-4.27,1.72.42Z" fill="#fff"/></g></g></svg>