<svg id="Layer_1" data-name="Layer 1" xmlns="http://www.w3.org/2000/svg" viewBox="0 0 127.51 91.75"><title>Zeichenfläche 1</title><path d="M78.42,31.86A10.91,10.91,0,1,0,67.51,42.77,10.92,10.92,0,0,0,78.42,31.86Zm-20,0a9,9,0,1,1,9,9A9.05,9.05,0,0,1,58.47,31.86Z" fill="#e0e0e0"/><path d="M71.55,31.86a4,4,0,1,0-4,4A4,4,0,0,0,71.55,31.86Zm-6.21,0A2.17,2.17,0,1,1,67.51,34,2.17,2.17,0,0,1,65.34,31.86Z" fill="#e0e0e0"/><path d="M67.51,76.69A11.58,11.58,0,1,0,55.94,65.12,11.59,11.59,0,0,0,67.51,76.69Zm0-21.28a9.71,9.71,0,1,1-9.71,9.71A9.72,9.72,0,0,1,67.51,55.41Z" fill="#e0e0e0"/><path d="M67.51,69.6A4.48,4.48,0,1,0,63,65.12,4.49,4.49,0,0,0,67.51,69.6Zm0-7.09a2.61,2.61,0,1,1-2.61,2.61A2.62,2.62,0,0,1,67.51,62.5Z" fill="#e0e0e0"/><circle cx="57.26" cy="55.44" r="1.26" fill="#e0e0e0"/><circle cx="77.62" cy="55.44" r="1.26" fill="#e0e0e0"/><circle cx="57.26" cy="74.86" r="1.26" fill="#e0e0e0"/><circle cx="77.62" cy="74.86" r="1.26" fill="#e0e0e0"/><path d="M85.74,65.12a18.22,18.22,0,0,0-36.21-2.81L51.21,64a16.39,16.39,0,1,1,5.51,13.43L56,79.2A18.22,18.22,0,0,0,85.74,65.12Z" fill="#e0e0e0"/><path d="M43.84,19.42a4.36,4.36,0,0,1,4.36-4.36H86.83a4.36,4.36,0,0,1,4.36,4.36V58l1.87-4.22V19.42a6.23,6.23,0,0,0-6.22-6.22H48.19A6.23,6.23,0,0,0,42,19.42v35.1l1.87,3Z" fill="#e0e0e0"/><path d="M86.83,87.24H48.09l-2.29,1.4a6.19,6.19,0,0,0,2.4.48H86.83a6.23,6.23,0,0,0,5.63-3.58l-1.76-.68A4.35,4.35,0,0,1,86.83,87.24Z" fill="#e0e0e0"/><path d="M52.47,80.16a8.27,8.27,0,0,0,.94-7.2c-1.54-4.81-5.81-8.79-8.89-11.37-2.7-2.26-4-4.05-4.14-5.63,0-.34,0-.76-.07-1.24A22,22,0,0,0,38.93,47a5.13,5.13,0,0,0-4.07-2.91,1.84,1.84,0,0,0-1.79.72h0a1.77,1.77,0,0,0,.15,1.91c1.26,2.2,1.14,3.59-.44,4.81a4.07,4.07,0,0,1-3.1,1h-.29A2,2,0,0,1,28.32,52L11.77,16a.75.75,0,0,0-.06-.28,9.57,9.57,0,0,1,.15-3.43A8.15,8.15,0,0,0,12,10.55c-.09-.74-.9-1.59-2.14-2.79l-.41-.4c-.71-.72-.65-.82-.61-.89L9,6.33a3.7,3.7,0,0,0,.82-3.66A3.9,3.9,0,0,0,7.66.27,3.21,3.21,0,0,0,3.61,1.7a3.33,3.33,0,0,0-.26.52,8.06,8.06,0,0,0-.16,1.7L.79,4.13A.76.76,0,0,0,.92,5.64l2.22-.2c0,.49,0,1,0,1.56L.77,7.21A.76.76,0,1,0,.9,8.72l2.25-.2c0,.53,0,1.07,0,1.61l-2.5.22a.76.76,0,1,0,.14,1.51l2.42-.22c0,.51,0,1,.08,1.47l-2.46.22A.76.76,0,0,0,1,14.85l2.43-.22a8.23,8.23,0,0,0,.43,2.47A4.45,4.45,0,0,0,6.25,18.4L19.92,51.8A5.55,5.55,0,0,1,16,53.25c-1.59-.23-3.36-2.41-3.79-3.51a3.16,3.16,0,0,0-3.11-2c-.53.07-1.78.45-2,2.48C6.7,53.55,11.37,60.52,14,63s4,7.15,3.63,9.66-.81,11.24,3.08,15.73c3.74,4.33,10.5,4.44,20.08.33.24-.1,6-2.57,8.78-5.24A17.16,17.16,0,0,0,52.47,80.16Zm-23.33-23-4.57,2L7.82,18.21l2.76-1.13L27.06,52.91ZM4.75,2.78a1.89,1.89,0,0,1,.15-.28,1.75,1.75,0,0,1,2.16-.83A2.37,2.37,0,0,1,8.33,3.13a2.19,2.19,0,0,1-.49,2.18,2.41,2.41,0,0,0-.27.36c-.74,1.2.24,2.18.82,2.76l.42.42a11.28,11.28,0,0,1,1.69,1.88,10.47,10.47,0,0,1-.16,1.39,13.66,13.66,0,0,0-.24,3.52L6.83,17a5.07,5.07,0,0,1-1.67-.68C4.76,14.83,4.43,3.84,4.75,2.78ZM40.24,87.36c-8.9,3.82-15.07,3.84-18.33.07S18.67,76,19.18,72.93c.48-2.94-1.08-8.19-4.09-11S8.32,52.76,8.59,50.4c.06-.49.22-1.09.7-1.15a1.67,1.67,0,0,1,1.51,1c.52,1.34,2.58,4.11,5,4.46a6.85,6.85,0,0,0,4.75-1.47l2.93,7.16a.76.76,0,0,0,1,.41l6-2.66a.76.76,0,0,0,.34-.29.76.76,0,0,0,0-.74L29.31,54h.24a5.51,5.51,0,0,0,4.14-1.35c2.2-1.7,2.48-3.91.83-6.77a1.23,1.23,0,0,1-.15-.34,1.75,1.75,0,0,1,.88.07,3.69,3.69,0,0,1,2.29,1.92,20.82,20.82,0,0,1,1.24,7.21c0,.49,0,.93.07,1.29.17,2,1.61,4.1,4.68,6.67S50.54,69,52,73.42c1,3.11,0,5.8-3.39,9C45.95,84.89,40.3,87.33,40.24,87.36Z" fill="#e0e0e0"/><path d="M39.42,74.35,30.28,77.8a.76.76,0,0,0,.54,1.42L40,75.77a.76.76,0,1,0-.54-1.42Z" fill="#e0e0e0"/><path d="M36.62,68.88a.76.76,0,0,0-.92-1.1L28.58,70.6A.76.76,0,1,0,29.13,72l7.12-2.83A.75.75,0,0,0,36.62,68.88Z" fill="#e0e0e0"/><path d="M35,64.79a.76.76,0,0,0-.92-1.1l-7.12,2.83a.76.76,0,1,0,.56,1.41l7.12-2.83A.75.75,0,0,0,35,64.79Z" fill="#e0e0e0"/><path d="M124.3,22.48A14.21,14.21,0,0,0,119,18.42a14.36,14.36,0,0,0-18.41,20.12L86.93,74.86a6.18,6.18,0,0,0,1,6,6,6,0,0,0,2.19,1.69l.08,0a6.18,6.18,0,0,0,7.9-2.73l18.1-34.37a14.34,14.34,0,0,0,8.09-23Zm-6-2.48a12.61,12.61,0,0,1,6.92,15.13,15.65,15.65,0,0,1-22.81-10.25A12.63,12.63,0,0,1,118.32,20ZM96.58,79.09a4.42,4.42,0,0,1-5.65,2l-.08,0a4.42,4.42,0,0,1-2.29-5.52L101.8,40.32l.17.23a14.33,14.33,0,0,0,12.11,5.28ZM108,43a12.61,12.61,0,0,1-6.69-15.83,17.41,17.41,0,0,0,22.94,10.33A12.63,12.63,0,0,1,108,43Z" fill="#e0e0e0"/></svg>