<svg xmlns="http://www.w3.org/2000/svg" viewBox="0 0 80 60"><title>pt</title><path d="M39.8 19.8v12.7c0 4.4-4 8-8.8 8V43a14 14 0 1 0 0-27.8v4.6z" fill="#d00"/><path d="M31 0v14.2a15 15 0 1 1 0 30V60h49V0z" fill="#d00"/><path d="M31 43v-2.5c-5 0-8.8-3.6-8.8-8V19.7H31v-4.5a14 14 0 0 0 0 28z" fill="#060"/><path d="M16 29a15 15 0 0 1 15-14.8V0H0v60h31V44a15 15 0 0 1-15-15z" fill="#060"/><path d="M31 40c4.6 0 8.3-3.4 8.3-7.5V20.2H22.7v12.3c0 4 3.7 7.5 8.3 7.5zm-5-16.3h10v8a5 5 0 0 1-10 0z" fill="#d00"/><path d="M39.8 32.5V19.7H22.2v12.8c0 4.4 4 8 8.8 8 5 0 8.8-3.6 8.8-8zm-17-12.3h16.5v12.3c0 4-3.7 7.5-8.3 7.5s-8.3-3.4-8.3-7.5z" fill="#e6e6e6"/><path d="M31 36.6a5 5 0 0 0 5-5v-8H26v8a5 5 0 0 0 5 5zm2-7.8h2.3v1.8a1 1 0 1 1-2.3 0zm-3.3-4.4h2.5v2a1.2 1.2 0 0 1-2.5 0zm2.5 4.4v2a1.2 1.2 0 0 1-2.4 0v-2zm-2.5 4h2.5v2a1.2 1.2 0 0 1-2.5 0zm-3-2.2v-2H29v2a1.2 1.2 0 0 1-2.3 0z" fill="#fff"/><path d="M16 29a15 15 0 1 0 15-14.8 15 15 0 0 0-15 15zm15-13.8a14 14 0 1 1-14 14 14 14 0 0 1 14-14z" fill="#ffec00"/><path d="M31 27.6a1.2 1.2 0 0 0 1.2-1.2v-2h-2.4v2a1.2 1.2 0 0 0 1.2 1.2zM30 28.8v2a1.2 1.2 0 0 0 2.2 0v-2zM31 36a1.2 1.2 0 0 0 1.2-1.2v-2h-2.4v2A1.2 1.2 0 0 0 31 36zM34.2 31.8a1 1 0 0 0 1-1.2v-1.8H33v1.8a1 1 0 0 0 1.2 1.2zM29 30.6v-2h-2.3v2a1.2 1.2 0 0 0 2.3 0z" fill="#00247d"/></svg>